<mxfile host="app.diagrams.net" modified="2023-07-05T18:57:09.236Z" agent="Mozilla/5.0 (Macintosh; Intel Mac OS X 10_15_7) AppleWebKit/537.36 (KHTML, like Gecko) Chrome/114.0.0.0 Safari/537.36" version="21.5.0" etag="b4_BJmrQuUcRLza_0di6" type="github">
  <diagram name="Page-1" id="bcnj5EraXtM217xxbPuR">
    <mxGraphModel>
      <root>
        <mxCell id="0" />
        <mxCell id="1" parent="0" />
      </root>
    </mxGraphModel>
  </diagram>
</mxfile>
